<svg width="432" height="101" viewBox="0 0 432 101" fill="none" xmlns="http://www.w3.org/2000/svg">
<rect x="1.39542" y="1.39719" width="99" height="99" rx="24.5" fill="#FF5A3E" stroke="#9A3B2A"/>
<path d="M43.3799 53.3357L19.8738 76.6819V81.7189H81.5173V76.6819H27.2294L50.4957 53.3357H81.5173V48.2987H27.2294L50.4957 25.1924H81.917V20.0755H48.4169L20.3535 48.2987V53.3357H43.3799Z" fill="white"/>
<path d="M129.757 82.2309C127.41 82.2309 124.786 82.1456 121.885 81.9749C119.026 81.8043 116.488 81.5909 114.269 81.3349V76.2789C119.816 76.8336 124.445 77.1109 128.157 77.1109C130.461 77.1109 132.274 77.0256 133.597 76.8549C134.962 76.6416 136.114 76.2789 137.053 75.7669C137.906 75.2549 138.461 74.5083 138.717 73.5269C138.973 72.5029 139.101 71.1589 139.101 69.4949C139.101 67.4896 138.994 66.0816 138.781 65.2709C138.568 64.4176 138.056 63.7989 137.245 63.4149C136.477 63.0309 135.133 62.7536 133.213 62.5829L122.333 61.3669C119.688 61.0683 117.682 60.4496 116.317 59.5109C114.994 58.5296 114.098 57.2709 113.629 55.7349C113.202 54.1562 112.989 52.1082 112.989 49.5909C112.989 46.0922 113.586 43.4469 114.781 41.6549C116.018 39.8629 117.725 38.6682 119.901 38.0709C122.12 37.4736 125.085 37.1749 128.797 37.1749C131.272 37.1749 133.789 37.2816 136.349 37.4949C138.909 37.7082 140.936 37.9642 142.429 38.2629V43.1269C140.808 42.8709 138.802 42.6789 136.413 42.5509C134.024 42.3802 131.805 42.2949 129.757 42.2949C127.368 42.2949 125.448 42.4016 123.997 42.6149C122.546 42.8283 121.416 43.1909 120.605 43.7029C119.709 44.2149 119.133 44.8976 118.877 45.7509C118.621 46.6042 118.493 47.8202 118.493 49.3989C118.493 51.1483 118.621 52.4282 118.877 53.2389C119.133 54.0069 119.624 54.5829 120.349 54.9669C121.074 55.3082 122.269 55.5642 123.933 55.7349L134.685 56.9509C137.245 57.2069 139.229 57.6549 140.637 58.2949C142.045 58.9349 143.069 60.0869 143.709 61.7509C144.306 63.2869 144.605 65.7402 144.605 69.1109C144.605 72.9936 144.008 75.8949 142.813 77.8149C141.618 79.6923 140.018 80.9083 138.013 81.4629C136.008 81.9749 133.256 82.2309 129.757 82.2309ZM156.582 81.7189V53.8149H149.99V49.0789H156.582V39.6069H161.766V49.0789H169.574V53.8149H161.766V81.7189H156.582ZM189.51 82.2309C184.944 82.2309 181.68 81.7829 179.718 80.8869C177.755 79.9483 176.496 78.3909 175.942 76.2149C175.43 73.9963 175.174 70.3909 175.174 65.3989C175.174 60.4069 175.43 56.8229 175.942 54.6469C176.496 52.4282 177.755 50.8709 179.718 49.9749C181.68 49.0363 184.944 48.5669 189.51 48.5669C194.032 48.5669 197.275 49.0363 199.238 49.9749C201.2 50.8709 202.438 52.4282 202.95 54.6469C203.504 56.8229 203.782 60.4069 203.782 65.3989C203.782 70.3909 203.504 73.9963 202.95 76.2149C202.438 78.3909 201.2 79.9483 199.238 80.8869C197.275 81.7829 194.032 82.2309 189.51 82.2309ZM189.51 77.4949C192.624 77.4949 194.779 77.2176 195.974 76.6629C197.168 76.1083 197.894 75.1056 198.15 73.6549C198.448 72.1616 198.598 69.4096 198.598 65.3989C198.598 61.3883 198.448 58.6576 198.15 57.2069C197.894 55.7136 197.168 54.6896 195.974 54.1349C194.779 53.5802 192.624 53.3029 189.51 53.3029C186.395 53.3029 184.219 53.5802 182.982 54.1349C181.787 54.6896 181.04 55.7136 180.742 57.2069C180.486 58.6576 180.358 61.3883 180.358 65.3989C180.358 69.4096 180.486 72.1616 180.742 73.6549C181.04 75.1056 181.787 76.1083 182.982 76.6629C184.219 77.2176 186.395 77.4949 189.51 77.4949ZM234.255 81.3989C233.103 81.6123 231.695 81.8043 230.031 81.9749C228.41 82.1456 226.852 82.2309 225.359 82.2309C221.348 82.2309 218.404 81.6549 216.527 80.5029C214.65 79.3509 213.434 77.6443 212.879 75.3829C212.367 73.1216 212.111 69.7936 212.111 65.3989C212.111 61.0896 212.431 57.7616 213.071 55.4149C213.711 53.0683 214.97 51.3403 216.847 50.2309C218.724 49.1216 221.498 48.5669 225.167 48.5669C226.618 48.5669 228.154 48.6523 229.775 48.8229C231.439 48.9936 232.847 49.1856 233.999 49.3989V54.0069C231.439 53.5376 228.922 53.3029 226.447 53.3029C223.716 53.3029 221.711 53.6229 220.431 54.2629C219.194 54.9029 218.362 56.0336 217.935 57.6549C217.508 59.2762 217.295 61.8576 217.295 65.3989C217.295 68.9829 217.508 71.6069 217.935 73.2709C218.404 74.8923 219.258 76.0016 220.495 76.5989C221.775 77.1963 223.823 77.4949 226.639 77.4949C228.73 77.4949 231.268 77.2816 234.255 76.8549V81.3989ZM263.757 81.7189L252.237 67.6389H248.141V81.7189H242.957V34.1669H248.141V62.8389H252.237L263.821 49.0789H269.645L256.397 64.8869L269.837 81.7189H263.757ZM293.226 81.7189V37.6869H321.898V42.8069H298.73V56.9509H318.826V62.0709H298.73V76.5989H321.898V81.7189H293.226ZM352.523 81.7189L342.987 69.3029H342.603L333.131 81.7189H327.371L339.723 65.1429L327.819 49.0789H333.771L342.859 60.9189H343.179L352.267 49.0789H358.027L346.123 65.0789L358.475 81.7189H352.523ZM363.779 81.7189V77.3029L382.787 53.8149H364.547V49.0789H389.507V53.4949L370.563 76.9829H389.635V81.7189H363.779ZM411.063 94.9029C406.498 94.9029 402.828 94.7109 400.055 94.3269V89.8469C404.748 90.0603 408.034 90.1669 409.911 90.1669C413.196 90.1669 415.586 89.8256 417.079 89.1429C418.572 88.5029 419.532 87.4576 419.959 86.0069C420.386 84.5989 420.599 82.3589 420.599 79.2869V77.3669H420.215C419.575 78.8176 418.423 79.9696 416.759 80.8229C415.138 81.6336 412.77 82.0389 409.655 82.0389C406.54 82.0389 404.172 81.6123 402.551 80.7589C400.972 79.8629 399.906 78.5403 399.351 76.7909C398.796 74.9989 398.519 72.5456 398.519 69.4309V49.0789H403.703V67.3189C403.703 70.3909 403.874 72.5669 404.215 73.8469C404.599 75.1269 405.324 75.9803 406.391 76.4069C407.458 76.8336 409.25 77.0469 411.767 77.0469C414.455 77.0469 416.418 76.6203 417.655 75.7669C418.935 74.9136 419.746 73.7403 420.087 72.2469C420.428 70.7536 420.599 68.6203 420.599 65.8469V49.0789H425.783V77.7509C425.783 82.2736 425.442 85.7083 424.759 88.0549C424.076 90.4016 422.69 92.1296 420.599 93.2389C418.508 94.3483 415.33 94.9029 411.063 94.9029Z" fill="white"/>
</svg>
